<svg xmlns="http://www.w3.org/2000/svg" viewBox="0 0 210 52"><path fill="#006" d="M116.9 38.5v9.9a35.4 35.4 0 0 1-16 4.2c-14.6 0-23.4-8.6-23.4-19.4 0-11.7 10-21.3 22.8-21.3a24 24 0 0 1 8 1.4c1.7.5 2.8 1.2 4 1.2s1.2-1.6 1.3-2.6h1.4l1.3 13.4h-1.7A12.8 12.8 0 0 0 111 19a14.2 14.2 0 0 0-10.3-4c-8.8 0-13.9 6.9-13.9 17.3s6.3 17.2 14.6 17.2a17 17 0 0 0 7.4-1.8V37.5c0-3.3-.5-4.6-5.3-4.6v-1.5h17.6v1.5c-4.4 0-4.2 1.4-4.2 5.6zM68.5 22v29.8h-2.3L36.5 21a13.6 13.6 0 0 1 .1 2.4v18.7c0 5.7 0 7.8 5.2 7.8v1.6h-14V50c5.4 0 5.4-2.5 5.4-7.8V20.9c0-3.2 0-6.7-5.6-6.7v-1.4h13.2l24.5 25a9.2 9.2 0 0 1-.2-2V22c0-5.5.2-7.9-5-7.9v-1.4H74v1.4c-5.2 0-5.5 2.2-5.5 7.9zM1 51.6V50c3.4 0 5.7-.3 5.7-5.1V19.4c0-5-1.8-5.2-5.7-5.2v-1.4h19.7v1.4c-4 0-5.7.1-5.7 5.2v25.5c0 4.9 2 5.1 5.7 5.1v1.6z"/><path fill="#fff" d="M189.3 26.1l-4.2-3.2-2 .4-1.3 2.8-7.5 1-5-4.8-4.6-13-1.7-4.8-4-.8-4.6 2-6.1-2.1-3.5.9-1.2 2.9-2.1 3.7-.6 6.2 2.3 8.5-2 3 2.7 6.1-2.4 4.2-1.6 4.8-3.3-.4-4.1 1.9-1.5 2.2.2 3 1 .5 5.9.1 12.1-.2 1.7.6h34.8l6.5-4.7-1.2-15-2.7-5.8zm5.9-13.1l-2.4-4.8-.5-.3-1.4-.4-4.5 1.5-.2 2.6.2.3a5.2 5.2 0 0 0 .7 1 25.6 25.6 0 0 0 3.3 1.3z"/><path fill="#f60" d="M155.4 51.6a9.1 9.1 0 0 1-.8-3.7 4.7 4.7 0 0 1 .4-2.3l-1.5.3c-.4.5-.6.8-.6 1l.7-.2c.2 0 .3.3.4.5 0 .7-1 .7-1.2 1-.4 1.4.8 2.3 1 3.4zm53.7-18a23.6 23.6 0 0 0-7-16.6c-2-2-4-2.9-5.8-4.8a10.3 10.3 0 0 1-2-2.8 6.9 6.9 0 0 0-2-1.5l.5 1.2h-.2a3.5 3.5 0 0 1-2-.8l.6-.6c-.1-.2-.6-.2-.8-.2-2.3-.4-4.3.8-6.5 1.2V9c1.4.4 1.7 2.1 2.4 3h.8l1 .2a2.8 2.8 0 0 0-.2-.8.5.5 0 0 1 .8 0c.7.4 1.7-.3 2.4.8a4.4 4.4 0 0 0-2.4.4c0 .2.4.4.3.7-.7-.3-1.5 0-1.8-.5h-.2a7.7 7.7 0 0 0 3.4 2.2c1.8.3 3.4-.6 5.1-.1a20 20 0 0 1 10.8 17.5c0 10.2-5.9 14.3-9.5 14.3a4 4 0 0 1-2.2-.8 19.4 19.4 0 0 0 .7-5.6 24 24 0 0 0-5.6-15.7c-1.5-1.5-3.2-2.8-5-2.8a2.6 2.6 0 0 0-2.1.7 2.8 2.8 0 0 0-1 2.4 7.8 7.8 0 0 1-4.4 1.3 8.5 8.5 0 0 1-5.2-2V22c-.4-.1-1.8-1-1-1.6a2.7 2.7 0 0 1 .7.5 5.5 5.5 0 0 0-.8-2.9 1.9 1.9 0 0 1-1.1-.3 2.4 2.4 0 0 1-.9-1.6c.5.7 1.2.4 1.6.8-.7-1.7-.4-2.4-1.7-4.8-.3-1.3-1.5-2-2.4-2.8-.4-.3-.5-.7-1-.7s-.6-.9-.6-1.3a4 4 0 0 1 .8.4c-.8-1.9-1.4-4-3.2-5l-.4.2h-2.2a9.8 9.8 0 0 1 1.3-.7 1.7 1.7 0 0 0-1.6-.5c-.3 0-.9.5-1.4.5h-.1c0-.4-.1-1 .7-1.2a7.3 7.3 0 0 0-2.5 0c-.2.6-.6 1-.6 1.6-.4.3-.5.7-1 1.1a15.4 15.4 0 0 1 .6-2.5c-.6.2-1.3.6-1.6.6a10.4 10.4 0 0 0-3-1.1c.8.6.4 1.5.5 2.2l-.5-.2c-.2-.6-.9-1-1-1.7a3.8 3.8 0 0 0-2.1.7v.1a1.9 1.9 0 0 1 1.2.9c-1 0-1.7-.5-2.6-.5l-.2-.1a3.2 3.2 0 0 0-1 .8 6 6 0 0 0-2 2.8l.8.1c-.6.2-.9.9-1.4 1V9a4 4 0 0 0-1.3 1.6 24.9 24.9 0 0 0-.8 7.5 1 1 0 0 1-.7.8v2.2a12.8 12.8 0 0 1 1.2-1V22c-.5 0-1 .7-1 1l.2 1.8a.8.8 0 0 0 .1.5c0-.3.3-.5.7-.7a1.2 1.2 0 0 1 .8-.3 5.5 5.5 0 0 0-.8 1.6l-.4.4a1.4 1.4 0 0 0-.2.4 42.3 42.3 0 0 0 2.6 8.1 34.9 34.9 0 0 0-3.2 8.7 3.5 3.5 0 0 0-2.5-.9 3 3 0 0 0-2.2 1.3 2.3 2.3 0 0 0-2.5.2 2.5 2.5 0 0 0-1.1 2.4 2.9 2.9 0 0 0-.9 2 5.3 5.3 0 0 0 .9 3.2h21a3.8 3.8 0 0 0-.7-1.2 6.4 6.4 0 0 1-.2-2.8 13.2 13.2 0 0 1 1.4-2.4c.2-.4 0-.4.2-.5l1-.2c.5 0 1-.4 1.6-.4.5.6.5-.4 1.2-.7a3.7 3.7 0 0 1 3.8 1.1v.3h-.6a3.4 3.4 0 0 0-2.7-.3l-.1.7v.7c.5 0 1 .6 1.5.8a2.1 2.1 0 0 1 1.6-.8 1.5 1.5 0 0 1 1.6 1.5V49a5.1 5.1 0 0 0 2 1 1 1 0 0 1-1 .5h-1.2c-.1 0-.4 0-.4-.5a11 11 0 0 0-1 1.7h16.2l-.7-1.3a9.5 9.5 0 0 1-.3-2.8l1.5-2c.9 0 1.6-.3 3.1-.5.3-.4 0-.6 1.3-.6a5 5 0 0 1 2 .3v.6c-.1.3-.9-.3-1.3-.1s.2.4.2.7c.2.2-1.3-.3-1.3-.3l-.4 1 .8 1c.3.3-.4.8-.4 1.2-.3-.2-.8-.6-.8-.4a24.1 24.1 0 0 0-.2 3.2h1.5l.2-2.4c.1-1.4 1.8-3.9 2.8-3.9a2.3 2.3 0 0 1 1.4.6c.2.5.9.8.9 1s-.4.5-1 .5c-.3 0-.3-.4-.7-.7l-.9.8s1 .9 1 1.4a1.6 1.6 0 0 1-.5 1.4l-.9-1.7c-.4 0-1 .9-1 1.3s-.4.8-.4 1.7h8.6a5.3 5.3 0 0 0 2.8-.9h1.7a11.3 11.3 0 0 0 8.6-3.5c3.1-3.3 5.1-8.6 5.1-13.7zm-30 12.7l-1.4.1a1.2 1.2 0 0 1 .6 1.1 1.7 1.7 0 0 1-.6 1.2c-.3-.3-.3-.8-.6-1.2-.2 0-.4.7-.4 1a6.7 6.7 0 0 0 1 3.1h1.3a24.1 24.1 0 0 1-.4-3.4 6.7 6.7 0 0 1 .5-2zM160.8 48c0-.6-.4-.7-1-.7-.3 0-.9.4-.9.7l-.2 3.6h.9a23.6 23.6 0 0 0 1.2-3.7zm-3-.2l-1.2-1.1c-.3 0-.7.8-.7 1.1a11.7 11.7 0 0 0 .7 3.8h1l.2-3.8zm36.5-35a1.5 1.5 0 0 0-1.3-.9c-.4-.5-1-1.2-1.5-1.2.4 0 1-.5 1.7-.5l1 1.7zm-4.2-3h-1.5c-.3-.4-.7 0-1 0s-.4 0-1-.4a4.7 4.7 0 0 0 2-.7c.6.4 1.1.6 1.5 1.1zm-3.3 16a7.8 7.8 0 0 0-2.3-.8 3.6 3.6 0 0 0-1.7.7c-.4-.5.3-1.6.9-2a1 1 0 0 1 1 0c0 .9 1 .5 1.6.7a3.4 3.4 0 0 1 .5 1.3zm-.2 2l-1.4-.2a2.3 2.3 0 0 0-2 1 1.2 1.2 0 0 1 0-1.2 3 3 0 0 1 1.7-1 1.7 1.7 0 0 1 1.8 1.4zm3.2 3a8.4 8.4 0 0 0-3.7-1.1 6.3 6.3 0 0 0-2.7 1.3l-.3-1.3c.8-.1.8-.8 1.4-.8l1.4-.1c.4 0 .6-.3.7-.3.7 0 .4.7.9.7s.7-.3 1-.3c.7 0 1.2 1.1 1.3 2zm.5 3c-1 0-2-.2-2.1-.6s0-.8-.7-.8c-.3 0-.7.4-.7.4-.3.1-1-.4-1 0 0 .7-.6 1-1.3 1a1.8 1.8 0 0 1-.8-.2v-1.4c1.8 0 1.7-.5 2.5-.5.5 0 .9.3 1.3.3.7 0 .3-.3 1-.3s1 .5 1.4.7c0 .4.4 1 .4 1.5zm-1.3 3c-.4 0-1.4-.2-1.4-.6s-.3-.7-1-.7a5.1 5.1 0 0 0-1.7.4 3.8 3.8 0 0 1-.6-1 6.6 6.6 0 0 1 1.9-.5c1 0 2 0 2 .4s.8.7.8 2.1zm-24.2-21.6l-.2 1.4-1.2.3.7-3a5 5 0 0 1 .7 1.3zm26.9 26.6a2.7 2.7 0 0 1-.5 1.8l-.8-1.2c.3-.5.3-1 .7-1.7l.6 1.1zm-3.4-1.8c-1 0-.4-2-2.4-2-.4 0-.7.7-1.2.8v-1a1.3 1.3 0 0 1 .8-1c1 0 .7.4 1.5.6a3.3 3.3 0 0 0 1.3.4zm-8.7-7.9c-1.2-.7-2-2-3-3.2 1 0 1.4 1.1 2.2 1.3a4.5 4.5 0 0 1 .8.8zm-11.9-10.3c-.8 0-1.2-.4-1.7-1.2a6.8 6.8 0 0 1 0-1.6c.3.6.3.8.6 1.1.5-.3.5.4.7.6a3.5 3.5 0 0 1 .4 1.1zm23 23.7a2.5 2.5 0 0 0-.4.8c0-.7-.9-1.1-1.4-2.2l.5-1a1.8 1.8 0 0 1 1 1.4.8.8 0 0 0 0 .6s.3 0 .3.4zm-2.8-4a6 6 0 0 1-.3 1.4c-1-.1-1-1.2-1-1.4-.7-.8-1.7-.1-2.3-.1-.3-.8.1-.8.1-1.4.4 0 .8-.3 1.2 0 .7-.3 1 .4 1.8.4a8.4 8.4 0 0 0 .5 1.1zm-7-5.7c0 .6-.3 1-.1 1.6-.3-.9-.9-1.7-1.1-2.5 0-.2-.2-.2.1-.3s.7 0 .7.1a2.5 2.5 0 0 1 .4 1zm-12.2-11c-.1.6-.7 0-.8 0h-1.3c-.1-.2-.3-.3-.3-.6.6-.1 1-.4 1.4-.1s.6.8 1 .8zm3 3.2a1.9 1.9 0 0 1-2.3-.1l1.1-.5a5.4 5.4 0 0 0 1.3.6zm7.2 7.9l-.1 2.8c-.4 0-.4-.3-.4-.9a15.1 15.1 0 0 0-.7-2.3 23.9 23.9 0 0 0-1.6-3.3c-.1-.6-.8-.8-1.4-1.3a2.5 2.5 0 0 1 2 .6c0 .3.2.4.6.8 1 0 .7 1.3 1.5 1.9l-.8.9c.4.3.8.4 1 .8zm-5.4-4.1c0 .4-.3.5-.6.8a3 3 0 0 1-.5-1 3.7 3.7 0 0 1 .2-1.3c.3.5.9 1 .9 1.5zm13 12.6l-.3.3a3.7 3.7 0 0 0-1.9-.4c0-.6-.4-1.3-.7-1.3-.8 0-.7.6-1.4.6l1.3-1.3c.1-.3.1-.3.4-.3.4.3.6.5 1 .5a2.1 2.1 0 0 1-.1.8c.4.3.6-.2.9.3.4.2.8.3.8.9zm-11.3-9.6c0 .2-.4.5-.5.5a3.3 3.3 0 0 1-.9-1.3 2.9 2.9 0 0 1 .4-1.5l.5.2c.2 0 0 .6.1 1 .5.3.8.8.5 1.1zm-10.6-13.4a13.3 13.3 0 0 0-5.6-1.7 2 2 0 0 1-.1 1 18.3 18.3 0 0 1 4.5 2.7v1.3a11 11 0 0 0-4.7-3.3c0 .3-.6.6-.7 1.2a7.6 7.6 0 0 0-3.3-1.6c-.4 0-.6-1.5-.6-1.5a2.3 2.3 0 0 0 1.4-1.4h.5c.4 0 .4-.2.4-.7 0-.8-1.8-.8-2.6-.8a3.6 3.6 0 0 0-2.3.4c-.3 0-.1.4-.1.7s.4.4.4.4l.8-.2c0 .8.2 1.2 1 1.6V21a9.1 9.1 0 0 0-4 1.2 3.7 3.7 0 0 1-1-1 21.2 21.2 0 0 0-4.6 2.7v-1a17.2 17.2 0 0 1 4-2.3v-1c-.6-.3-1.1 0-1.7 0a6.8 6.8 0 0 0-3.2 1.3 4.7 4.7 0 0 0-.1-.9 8.5 8.5 0 0 1 5.1-1.3v-.5c-.1-.3-.1-.7-.4-.7a5.3 5.3 0 0 1-1.7-3l.6-.2c-.3-.8-.6-2.9 0-3.6a4.4 4.4 0 0 1-1.8-1.6 8.8 8.8 0 0 1-.7-1.9l1.1-2a.9.9 0 0 0 .8-.4c.7-.1 1-.8 1.9-.4a5 5 0 0 1 1.5.4.8.8 0 0 0 .3.7c.9 0 .9.9 1.3 1.6a3.5 3.5 0 0 0 1 .1c1 .3 1.6.3 1.9.6a5.5 5.5 0 0 1 3.5-.6 13.4 13.4 0 0 0 .6-1.7c.1.4.1 0 .4 0 .5-.4 1.2-1.1 2.1-.8.6.4 1.6.1 2.1.8l1.2 2c-.5.8 0 2-.9 2.4l-.8.8c-.3 0-.3.3-.7.3a4.5 4.5 0 0 1-.3 3.3c.3-.2.7-.2.7-.6v1a3 3 0 0 1-1 2c-.3.8-1 2-1.9 2v.4a12.2 12.2 0 0 1 5.7 1.5zm5.6 8.7l-.7.3a4 4 0 0 1-2.9-1c.6 0 1.3-.7 1.3-.7a5.3 5.3 0 0 0 2.3 1.4zm-3.9-3.1c-.8 0-1.7.4-2.2-.4l.9-.9zm11.4 13c0 .7-.9 1.5-1.2 2.1.3-.7.3-2.1 0-2.1s-.8 0-.8-.3l.1-1.2c0-.6-.4-.9-.4-1.2 0-.8 1-1 1.3-1.5a7.3 7.3 0 0 1 .1 1.8c0 .3.4 1.2 0 1.9 0 .3.9 0 .9.5zm-3.2-1.5c0 .8-.6 1.5-.7 2.3a2.8 2.8 0 0 0-.7-2c0-.3.4-.3.1-.8 0 0-.8-.4-.8-1s.5-1 .8-1.4c0-.1.6.3.6 1.2a2 2 0 0 1-.2.8c-.1.4.8.4.8.9zm-11.5-10c-.7.2-1.3-.5-2-.7a16.7 16.7 0 0 0-.6-2c.6.4 1.9.4 1.6 1.6 0 .4.6.6 1 1.2zm3.9 4a3.6 3.6 0 0 1-2-.4 4.8 4.8 0 0 1-1.6-1.1 5.2 5.2 0 0 1 1.5-.6 9.5 9.5 0 0 0 2 2.1zm-23.3-21.4l-1 .3v-.8a6.4 6.4 0 0 1 1-1.2zm17.8 19.3c-.6.2-1.6.4-1.8-.2a3.3 3.3 0 0 1 0-3.3 18 18 0 0 1 .5 2.3c.1.5 1 .8 1.2 1.2zm-4-7.6a4 4 0 0 1-1.2 2.7 2 2 0 0 0-.6-1.3l-.1.4a12.6 12.6 0 0 0-.3 1.4 1.6 1.6 0 0 1-1.4.2v-.4a3 3 0 0 1-.1-1.2l-.2-.1c-.4.1-.4.4-.4.7a2.1 2.1 0 0 0-.4 1 2 2 0 0 1-1.3-.4v-1.3l-.1-.3-.7.7a3 3 0 0 1-.7-2.2 8 8 0 0 1 6.7-.2l.8.3zm7.2 11.2h-.5c-1.5.5-2.7-.4-4-1.3a7.2 7.2 0 0 1 2.5-.4l.4.9a8.3 8.3 0 0 1 1.6.8zm-20.8-21l-.7.8c.2 1.4-.4 2.4-.4 3.6l-.7-2.2a5.5 5.5 0 0 1 .7-1.8zm14.3 18c-.7-.4-2-.6-1.7-1.4a2.5 2.5 0 0 1 1-1.1 7.2 7.2 0 0 0 .7 2.5zM171 45.2h-.1c-.3-.4-.4-.7-.7-.7.4-1.5-.4-2.8-.7-4V40c.4.7 1.6 1.4 1.4 2.1a27.3 27.3 0 0 1 .1 3zm-3.2-5.2c-.7 0-1.2 0-1.7-.7-.1 0-.3-.4-.5-.1-.7.5-1.4-.5-2.2-.3a2.7 2.7 0 0 1-1.5.8v-.1a1.3 1.3 0 0 1 .8-1.1c.8.2 1.5-1.6 2.4-.6a3.1 3.1 0 0 0 1 .1c1 .5 1.3 1.3 1.7 2zM155 28.7c0 1-.1 2.3-1.1 2.7l-.3-1.4a5.5 5.5 0 0 0 1.4-1.3zm4.6 6.1a2.7 2.7 0 0 1-1.5.6 13.6 13.6 0 0 1-2.3-2.6l2.3.4a15.7 15.7 0 0 1 1.6 1.6zm8.4 8c-.6-.4-1.4-.4-1.7-1.1a6 6 0 0 0-1.6-.1 8.1 8.1 0 0 1-1.8.1c-.2 0 0-.1-.3-.3a5 5 0 0 0-2.5 1.1l.7-1.6a8.7 8.7 0 0 0 1.2-.3 5.3 5.3 0 0 1 1.4-.2v.2c1.6 0 3.3-.2 4.4 1.1zM152 31c-.8-.8-1.5-1.5-1.5-2.4a2 2 0 0 1 1.2.3c0 .7.3 1.2.3 2.1zm-2.6-4l-.5 1.7a8.3 8.3 0 0 1-1-2.5zm20 18.6a10.8 10.8 0 0 0-.6 1.7c-.3-.9-.6-2.1-1.6-2.1a1.6 1.6 0 0 0-.8-1.2h-1c0 .5.9.5.3 1.2.6.4 1 .4 1.3 1 .2.5 0 1 .1 1.3l-.8.5c0-.7.1-2.1-.8-2.4-.9.3-1-.8-1.6-1.1-.2 0-.2-.7-.7-.4-.7.4-1.5 0-2.2.4l.7-1.2c.6-.4 1.1-.2 1.7-.4l1.1-.1a9.1 9.1 0 0 1 3.2 1 1.4 1.4 0 0 1 .8 1.3c.2 0 .8 0 .8.5zm-11-6.5h-.3a4.4 4.4 0 0 1-1.4-.7 3.1 3.1 0 0 1-.2-.8h1.1zm-10.8-10a4.8 4.8 0 0 1-2.2-1.7 4.5 4.5 0 0 1-.4-1.7 1.2 1.2 0 0 1 1 .7v.2a5 5 0 0 1 1.5 2.6zm6.7 5c-.1.7-.6 1-1.3 2l-2 .8c0-.4.5-.6.8-1a9.2 9.2 0 0 0 1-1.5 2.6 2.6 0 0 1 1.4-.4zm10.2 13.4l-.4.4c-.4-.4-.1-1.5-.8-1.6s-1.3-.7-1.6-.8l.6-.3a.7.7 0 0 1 .5 0c.3.2.6.4.6.7.3.4.7 0 1 .4a2 2 0 0 1 0 1.2zM152 33c-.4.9-.9 1.6-1.7 2a4.8 4.8 0 0 1-2 0c.4-.4.8-.5 1.4-.9l1.1-1zm2.8 6.4a1.8 1.8 0 0 1-1.7.3l-.8-1.2h2zm-10.2-10.6c-.7.7-1.4 1-1.6 1.9a2.7 2.7 0 0 0-.3-1.2 1.8 1.8 0 0 1 .7-1l1.2.3zm1.6 2.1a3 3 0 0 1-1 2 5.2 5.2 0 0 1-.4.5c0-.9.4-1.6.4-2.3.4-.2.7-.4 1-.2zm2 1.7l-.6 2c-.7.5-1.6.3-2.4.3 1-.3 1.9-1.5 2.4-2.3h.5zm.7 7l-.2 2.2c-.2-1-1-2-1.8-2a3.6 3.6 0 0 1-1-1.3c-.3-.4-.7 0-1.2-.4a2.9 2.9 0 0 0-1.8.4V38l1-1.1c1 .1 2.1 0 2.4.7a5.5 5.5 0 0 1 1.5 1.1v.4l1 .5zM148 44l-1 .9c-.3-.3 0-1-.4-1.5 0-.2.3-.4.1-.5L145 42a19.7 19.7 0 0 1-1.8-1.5c-.6 0-1 .2-1.7.3v-.2c.3-.6.3-1.3 1.1-1.3.5 0 1 0 1.3.4.6 0 .8.6 1.2.7a7 7 0 0 0 1.6 1.3.9.9 0 0 0 .4.8c.9 0 .7.8.9 1.4zm-2 2l-.5 1.4-.9-2.5c-1-1-2.3-1.2-3-1.7-.6-.2-.6.3-.9 0a1.4 1.4 0 0 1 .4-1.1h.9l.8.4c.5.4 1.4.4 1.4 1.2 0 .2-.1.3.3.9l1.3.3zm-3.9 1.4c0 1-1.8 2.6-1.8 2.6 0-.7.4-1.5.4-2.4a2 2 0 0 0-1.1-.5c-.4.3-.4.5-.6 1-.4.8-1.2 1.7-1.4 2.5a.1.1 0 0 1-.1-.1c0-1.4.1-3.8 1-4.8a2.7 2.7 0 0 1 2-1l.8.2-.6.8c.6.3 1.5.8 1.5 1.6zm-4.9-.9a2.9 2.9 0 0 1-.4 1.6c-.1-.6-.5-1.3-1.2-1.3-.6 1.1-.7 1.5-.2 3.2a3.9 3.9 0 0 1-1.2.9 5.3 5.3 0 0 1-.3-2.1 8.7 8.7 0 0 1 .4-2.8c.4-.4.7-1.1 1.1-1.4h1.6c-.7 0-.7.6-.7 1 .4 0 1 .2 1 .9zm-3.6 1.6c-.1 0-.5-.5-1-.5-.4.9 0 1.4 0 2.4a3 3 0 0 1-.1.9c-.3 0-.8-.6-.9-1.2v-2.2l1.2-1.5a1.7 1.7 0 0 1 .9 2zm28.7-38.6a2.9 2.9 0 0 0-.3-2.6c-.2-.6-1-.8-1.6-1.4l-1 .6a1.6 1.6 0 0 0-.8 1.5 5.7 5.7 0 0 1 2.3 2.3h.4c.5-.4.7 0 1-.4zm-4.6.8c0-.4-.2-.4-.3-.4-.7 0-.7-1.1-1.3-.8-.2 0-.5-.3-1 0l.3.1c.7 0 .4 1 1 1.1zm2.1 1.7s.3 0 0-.1l-3-.5c-.3.5-1 .5-1 .9h-.3a14.8 14.8 0 0 1 .3 3.5A1.2 1.2 0 0 1 157 17a9 9 0 0 1 1.6.8c.3-.1.4-.5.6-1-.5-.7-1.8-.2-1.8-1.5l-.8-.3a9.9 9.9 0 0 0-.2-2.2h.2l.4.5a2.3 2.3 0 0 0 1.6-.3c.3-.2.3-.8.6-.8s.5 0 .6-.3zm-6.9-3c-.2-.3-1 .1-1.5.3a1.2 1.2 0 0 0-1 1h1.6a4.4 4.4 0 0 1 1-1.3zm-3-1.5c-.2-1.4-1.7-1.5-2.4-2h-.6a2.7 2.7 0 0 0-1.4 2.4c.3 1.3 1.1.5 1.7 1.3a15.9 15.9 0 0 1 2.7-1.7zm8.2 12.7v-.6h-1.5zm-6.3-8c0-.2-.3-.5-.7-.8h-3.3a.8.8 0 0 0 .8.8c0 .6.4.7.6.9.4.3.5.3 1 0 .4.3.5-.3.7 0a7.8 7.8 0 0 1-.2 1.9c-.1 1-1 .8-1.6 1.2 0 .4-.5 1.1 0 1.6a6.7 6.7 0 0 1 1.4-.7c0-.5.4-.9 1-1.2-.1-1.3.3-2.5.3-3.7zm-1.1 7.4c-.3-.6-1 0-1.7-.3a.8.8 0 0 0 .4.8 2.3 2.3 0 0 1 1.3-.6z"/><g id="45cc5a74a210ca59f8918696ac2bd10724e4aaa64fc16994c291148988f344a725f8e8ce0770425437bed0d1e837c5e504a0a5d6e39f49f5576b1180d0212daebbc435cc664ffd2fd4800fd4"></g></svg>